<svg width="620" height="300" viewBox="0 0 620 300" fill="none" xmlns="http://www.w3.org/2000/svg">
<path d="M12.567 290.267H4.37542V263.722H12.9299C15.5049 263.722 17.7083 264.253 19.5402 265.316C21.372 266.37 22.7762 267.887 23.7526 269.866C24.729 271.836 25.2172 274.195 25.2172 276.943C25.2172 279.708 24.7247 282.088 23.7396 284.084C22.7546 286.072 21.3202 287.601 19.4365 288.673C17.5528 289.735 15.2629 290.267 12.567 290.267ZM7.58983 287.415H12.3596C14.5544 287.415 16.3733 286.992 17.8163 286.145C19.2593 285.298 20.3351 284.093 21.0437 282.529C21.7522 280.965 22.1065 279.103 22.1065 276.943C22.1065 274.8 21.7566 272.955 21.0566 271.408C20.3567 269.853 19.3112 268.66 17.92 267.831C16.5288 266.993 14.7963 266.574 12.7225 266.574H7.58983V287.415ZM38.5415 290.682C36.6232 290.682 34.9685 290.258 33.5773 289.411C32.1947 288.556 31.1276 287.363 30.3758 285.834C29.6327 284.296 29.2612 282.507 29.2612 280.468C29.2612 278.429 29.6327 276.632 30.3758 275.076C31.1276 273.512 32.1731 272.294 33.5125 271.421C34.8605 270.54 36.4331 270.099 38.2304 270.099C39.2673 270.099 40.2912 270.272 41.3022 270.617C42.3132 270.963 43.2335 271.525 44.063 272.302C44.8925 273.071 45.5535 274.091 46.0461 275.361C46.5386 276.632 46.7849 278.196 46.7849 280.053V281.349H31.4387V278.705H43.6742C43.6742 277.582 43.4495 276.58 43.0002 275.698C42.5595 274.817 41.9287 274.121 41.1078 273.612C40.2956 273.102 39.3364 272.847 38.2304 272.847C37.012 272.847 35.9578 273.149 35.0678 273.754C34.1865 274.35 33.5082 275.128 33.0329 276.087C32.5577 277.046 32.32 278.075 32.32 279.172V280.935C32.32 282.438 32.5793 283.713 33.0977 284.758C33.6248 285.795 34.355 286.586 35.2882 287.13C36.2214 287.666 37.3058 287.934 38.5415 287.934C39.3451 287.934 40.0709 287.821 40.719 287.597C41.3757 287.363 41.9417 287.018 42.4169 286.56C42.8922 286.093 43.2594 285.514 43.5186 284.823L46.4738 285.653C46.1627 286.655 45.64 287.536 44.9055 288.297C44.171 289.048 43.2637 289.636 42.1836 290.059C41.1035 290.474 39.8894 290.682 38.5415 290.682ZM51.438 297.733V270.358H54.3932V273.521H54.7561C54.9807 273.175 55.2918 272.734 55.6893 272.199C56.0954 271.654 56.6744 271.17 57.4261 270.747C58.1865 270.315 59.2148 270.099 60.5109 270.099C62.1872 270.099 63.6648 270.518 64.9437 271.356C66.2225 272.194 67.2206 273.383 67.9378 274.921C68.6549 276.459 69.0135 278.273 69.0135 280.364C69.0135 282.473 68.6549 284.3 67.9378 285.847C67.2206 287.385 66.2269 288.578 64.9566 289.424C63.6864 290.262 62.2218 290.682 60.5628 290.682C59.2839 290.682 58.26 290.47 57.4909 290.046C56.7219 289.614 56.13 289.126 55.7152 288.582C55.3005 288.029 54.9807 287.571 54.7561 287.208H54.4969V297.733H51.438ZM54.445 280.313C54.445 281.816 54.6654 283.142 55.106 284.292C55.5467 285.432 56.1905 286.327 57.0373 286.975C57.8841 287.614 58.921 287.934 60.148 287.934C61.4268 287.934 62.494 287.597 63.3494 286.923C64.2135 286.24 64.8616 285.324 65.2936 284.175C65.7343 283.017 65.9547 281.73 65.9547 280.313C65.9547 278.913 65.7386 277.651 65.3066 276.528C64.8832 275.396 64.2395 274.502 63.3754 273.845C62.5199 273.179 61.4441 272.847 60.148 272.847C58.9037 272.847 57.8582 273.162 57.0114 273.793C56.1645 274.415 55.5251 275.288 55.0931 276.411C54.661 277.526 54.445 278.826 54.445 280.313ZM79.5381 290.733C78.2766 290.733 77.1317 290.496 76.1034 290.021C75.0751 289.537 74.2586 288.841 73.6537 287.934C73.0488 287.018 72.7464 285.912 72.7464 284.616C72.7464 283.475 72.9711 282.551 73.4204 281.842C73.8697 281.125 74.4703 280.563 75.222 280.157C75.9738 279.751 76.8033 279.448 77.7106 279.25C78.6265 279.042 79.5468 278.878 80.4714 278.757C81.6811 278.602 82.6618 278.485 83.4136 278.407C84.174 278.321 84.727 278.178 85.0726 277.979C85.4269 277.781 85.604 277.435 85.604 276.943V276.839C85.604 275.56 85.2541 274.566 84.5542 273.858C83.8629 273.149 82.813 272.795 81.4046 272.795C79.9443 272.795 78.7993 273.115 77.9698 273.754C77.1403 274.394 76.557 275.076 76.22 275.802L73.3167 274.765C73.8352 273.555 74.5264 272.613 75.3905 271.94C76.2632 271.257 77.2137 270.782 78.242 270.514C79.2789 270.237 80.2985 270.099 81.3009 270.099C81.9403 270.099 82.6748 270.177 83.5043 270.332C84.3425 270.479 85.1504 270.786 85.9281 271.253C86.7144 271.719 87.3668 272.423 87.8852 273.365C88.4037 274.307 88.6629 275.569 88.6629 277.15V290.267H85.604V287.571H85.4485C85.2411 288.003 84.8955 288.465 84.4116 288.958C83.9277 289.45 83.284 289.869 82.4804 290.215C81.6768 290.561 80.696 290.733 79.5381 290.733ZM80.0047 287.986C81.2145 287.986 82.2341 287.748 83.0636 287.273C83.9018 286.798 84.5326 286.184 84.956 285.432C85.388 284.68 85.604 283.89 85.604 283.06V280.261C85.4744 280.416 85.1893 280.559 84.7486 280.688C84.3165 280.809 83.8154 280.917 83.2451 281.012C82.6834 281.099 82.1347 281.177 81.599 281.246C81.0719 281.306 80.6442 281.358 80.3158 281.401C79.5209 281.505 78.7777 281.673 78.0865 281.907C77.4038 282.131 76.8508 282.473 76.4274 282.931C76.0127 283.38 75.8053 283.994 75.8053 284.771C75.8053 285.834 76.1984 286.638 76.9848 287.182C77.7797 287.718 78.7864 287.986 80.0047 287.986ZM94.246 290.267V270.358H97.2012V273.365H97.4086C97.7715 272.38 98.4282 271.581 99.3787 270.967C100.329 270.354 101.401 270.047 102.593 270.047C102.818 270.047 103.099 270.051 103.436 270.06C103.773 270.069 104.027 270.082 104.2 270.099V273.21C104.097 273.184 103.859 273.145 103.487 273.093C103.125 273.033 102.74 273.002 102.334 273.002C101.366 273.002 100.502 273.205 99.7416 273.612C98.9898 274.009 98.3936 274.562 97.9529 275.271C97.5209 275.97 97.3049 276.77 97.3049 277.668V290.267H94.246ZM117.732 270.358V272.95H107.415V270.358H117.732ZM110.422 265.588H113.481V284.564C113.481 285.428 113.606 286.076 113.856 286.508C114.116 286.931 114.444 287.217 114.842 287.363C115.248 287.502 115.675 287.571 116.125 287.571C116.462 287.571 116.738 287.554 116.954 287.519C117.17 287.476 117.343 287.441 117.473 287.415L118.095 290.163C117.887 290.241 117.598 290.319 117.226 290.396C116.855 290.483 116.384 290.526 115.814 290.526C114.95 290.526 114.103 290.34 113.273 289.969C112.452 289.597 111.77 289.031 111.225 288.271C110.69 287.51 110.422 286.551 110.422 285.393V265.588ZM128.192 290.733C126.93 290.733 125.785 290.496 124.757 290.021C123.729 289.537 122.912 288.841 122.307 287.934C121.702 287.018 121.4 285.912 121.4 284.616C121.4 283.475 121.625 282.551 122.074 281.842C122.523 281.125 123.124 280.563 123.876 280.157C124.627 279.751 125.457 279.448 126.364 279.25C127.28 279.042 128.2 278.878 129.125 278.757C130.335 278.602 131.315 278.485 132.067 278.407C132.828 278.321 133.381 278.178 133.726 277.979C134.08 277.781 134.258 277.435 134.258 276.943V276.839C134.258 275.56 133.908 274.566 133.208 273.858C132.516 273.149 131.467 272.795 130.058 272.795C128.598 272.795 127.453 273.115 126.623 273.754C125.794 274.394 125.211 275.076 124.874 275.802L121.97 274.765C122.489 273.555 123.18 272.613 124.044 271.94C124.917 271.257 125.867 270.782 126.896 270.514C127.932 270.237 128.952 270.099 129.954 270.099C130.594 270.099 131.328 270.177 132.158 270.332C132.996 270.479 133.804 270.786 134.582 271.253C135.368 271.719 136.02 272.423 136.539 273.365C137.057 274.307 137.316 275.569 137.316 277.15V290.267H134.258V287.571H134.102C133.895 288.003 133.549 288.465 133.065 288.958C132.581 289.45 131.938 289.869 131.134 290.215C130.33 290.561 129.35 290.733 128.192 290.733ZM128.658 287.986C129.868 287.986 130.888 287.748 131.717 287.273C132.555 286.798 133.186 286.184 133.61 285.432C134.042 284.68 134.258 283.89 134.258 283.06V280.261C134.128 280.416 133.843 280.559 133.402 280.688C132.97 280.809 132.469 280.917 131.899 281.012C131.337 281.099 130.788 281.177 130.253 281.246C129.725 281.306 129.298 281.358 128.969 281.401C128.174 281.505 127.431 281.673 126.74 281.907C126.057 282.131 125.504 282.473 125.081 282.931C124.666 283.38 124.459 283.994 124.459 284.771C124.459 285.834 124.852 286.638 125.638 287.182C126.433 287.718 127.44 287.986 128.658 287.986ZM142.9 290.267V270.358H145.855V273.469H146.114C146.529 272.406 147.198 271.581 148.123 270.993C149.048 270.397 150.158 270.099 151.454 270.099C152.767 270.099 153.861 270.397 154.733 270.993C155.615 271.581 156.302 272.406 156.794 273.469H157.001C157.511 272.441 158.276 271.624 159.296 271.019C160.315 270.406 161.538 270.099 162.964 270.099C164.744 270.099 166.2 270.656 167.332 271.771C168.464 272.877 169.03 274.601 169.03 276.943V290.267H165.971V276.943C165.971 275.474 165.569 274.424 164.765 273.793C163.962 273.162 163.016 272.847 161.927 272.847C160.527 272.847 159.443 273.27 158.674 274.117C157.904 274.955 157.52 276.018 157.52 277.305V290.267H154.409V276.632C154.409 275.5 154.042 274.588 153.308 273.897C152.573 273.197 151.627 272.847 150.469 272.847C149.674 272.847 148.931 273.058 148.24 273.482C147.557 273.905 147.004 274.493 146.581 275.245C146.166 275.988 145.958 276.848 145.958 277.824V290.267H142.9ZM182.97 290.682C181.051 290.682 179.397 290.258 178.005 289.411C176.623 288.556 175.556 287.363 174.804 285.834C174.061 284.296 173.689 282.507 173.689 280.468C173.689 278.429 174.061 276.632 174.804 275.076C175.556 273.512 176.601 272.294 177.941 271.421C179.288 270.54 180.861 270.099 182.658 270.099C183.695 270.099 184.719 270.272 185.73 270.617C186.741 270.963 187.662 271.525 188.491 272.302C189.321 273.071 189.982 274.091 190.474 275.361C190.967 276.632 191.213 278.196 191.213 280.053V281.349H175.867V278.705H188.102C188.102 277.582 187.878 276.58 187.428 275.698C186.988 274.817 186.357 274.121 185.536 273.612C184.724 273.102 183.764 272.847 182.658 272.847C181.44 272.847 180.386 273.149 179.496 273.754C178.615 274.35 177.936 275.128 177.461 276.087C176.986 277.046 176.748 278.075 176.748 279.172V280.935C176.748 282.438 177.007 283.713 177.526 284.758C178.053 285.795 178.783 286.586 179.716 287.13C180.649 287.666 181.734 287.934 182.97 287.934C183.773 287.934 184.499 287.821 185.147 287.597C185.804 287.363 186.37 287.018 186.845 286.56C187.32 286.093 187.687 285.514 187.947 284.823L190.902 285.653C190.591 286.655 190.068 287.536 189.334 288.297C188.599 289.048 187.692 289.636 186.612 290.059C185.532 290.474 184.317 290.682 182.97 290.682ZM198.925 278.291V290.267H195.866V270.358H198.821V273.469H199.08C199.547 272.458 200.256 271.646 201.206 271.032C202.157 270.41 203.384 270.099 204.887 270.099C206.235 270.099 207.415 270.376 208.426 270.929C209.437 271.473 210.223 272.302 210.785 273.417C211.346 274.523 211.627 275.923 211.627 277.617V290.267H208.568V277.824C208.568 276.26 208.162 275.042 207.35 274.169C206.538 273.287 205.423 272.847 204.006 272.847C203.029 272.847 202.157 273.058 201.388 273.482C200.627 273.905 200.027 274.523 199.586 275.335C199.145 276.148 198.925 277.133 198.925 278.291ZM225.875 270.358V272.95H215.558V270.358H225.875ZM218.565 265.588H221.623V284.564C221.623 285.428 221.749 286.076 221.999 286.508C222.259 286.931 222.587 287.217 222.984 287.363C223.39 287.502 223.818 287.571 224.268 287.571C224.605 287.571 224.881 287.554 225.097 287.519C225.313 287.476 225.486 287.441 225.615 287.415L226.238 290.163C226.03 290.241 225.741 290.319 225.369 290.396C224.998 290.483 224.527 290.526 223.956 290.526C223.092 290.526 222.246 290.34 221.416 289.969C220.595 289.597 219.913 289.031 219.368 288.271C218.832 287.51 218.565 286.551 218.565 285.393V265.588ZM238.35 290.682C236.553 290.682 234.976 290.254 233.619 289.398C232.271 288.543 231.217 287.346 230.457 285.808C229.705 284.27 229.329 282.473 229.329 280.416C229.329 278.342 229.705 276.532 230.457 274.985C231.217 273.439 232.271 272.238 233.619 271.382C234.976 270.527 236.553 270.099 238.35 270.099C240.147 270.099 241.72 270.527 243.068 271.382C244.425 272.238 245.479 273.439 246.23 274.985C246.991 276.532 247.371 278.342 247.371 280.416C247.371 282.473 246.991 284.27 246.23 285.808C245.479 287.346 244.425 288.543 243.068 289.398C241.72 290.254 240.147 290.682 238.35 290.682ZM238.35 287.934C239.715 287.934 240.839 287.584 241.72 286.884C242.601 286.184 243.254 285.264 243.677 284.123C244.101 282.983 244.312 281.747 244.312 280.416C244.312 279.086 244.101 277.846 243.677 276.696C243.254 275.547 242.601 274.618 241.72 273.91C240.839 273.201 239.715 272.847 238.35 272.847C236.985 272.847 235.861 273.201 234.98 273.91C234.099 274.618 233.446 275.547 233.023 276.696C232.599 277.846 232.388 279.086 232.388 280.416C232.388 281.747 232.599 282.983 233.023 284.123C233.446 285.264 234.099 286.184 234.98 286.884C235.861 287.584 236.985 287.934 238.35 287.934ZM269.823 290.682C268.164 290.682 266.7 290.262 265.429 289.424C264.159 288.578 263.166 287.385 262.448 285.847C261.731 284.3 261.373 282.473 261.373 280.364C261.373 278.273 261.731 276.459 262.448 274.921C263.166 273.383 264.164 272.194 265.442 271.356C266.721 270.518 268.199 270.099 269.875 270.099C271.171 270.099 272.195 270.315 272.947 270.747C273.707 271.17 274.286 271.654 274.684 272.199C275.09 272.734 275.405 273.175 275.63 273.521H275.889V263.722H278.948V290.267H275.993V287.208H275.63C275.405 287.571 275.086 288.029 274.671 288.582C274.256 289.126 273.664 289.614 272.895 290.046C272.126 290.47 271.102 290.682 269.823 290.682ZM270.238 287.934C271.465 287.934 272.502 287.614 273.349 286.975C274.196 286.327 274.839 285.432 275.28 284.292C275.721 283.142 275.941 281.816 275.941 280.313C275.941 278.826 275.725 277.526 275.293 276.411C274.861 275.288 274.222 274.415 273.375 273.793C272.528 273.162 271.482 272.847 270.238 272.847C268.942 272.847 267.862 273.179 266.998 273.845C266.142 274.502 265.499 275.396 265.067 276.528C264.643 277.651 264.431 278.913 264.431 280.313C264.431 281.73 264.647 283.017 265.08 284.175C265.52 285.324 266.168 286.24 267.024 286.923C267.888 287.597 268.959 287.934 270.238 287.934ZM293.322 290.682C291.404 290.682 289.749 290.258 288.358 289.411C286.975 288.556 285.908 287.363 285.157 285.834C284.413 284.296 284.042 282.507 284.042 280.468C284.042 278.429 284.413 276.632 285.157 275.076C285.908 273.512 286.954 272.294 288.293 271.421C289.641 270.54 291.214 270.099 293.011 270.099C294.048 270.099 295.072 270.272 296.083 270.617C297.094 270.963 298.014 271.525 298.844 272.302C299.673 273.071 300.334 274.091 300.827 275.361C301.319 276.632 301.566 278.196 301.566 280.053V281.349H286.219V278.705H298.455C298.455 277.582 298.23 276.58 297.781 275.698C297.34 274.817 296.709 274.121 295.889 273.612C295.076 273.102 294.117 272.847 293.011 272.847C291.793 272.847 290.739 273.149 289.849 273.754C288.967 274.35 288.289 275.128 287.814 276.087C287.338 277.046 287.101 278.075 287.101 279.172V280.935C287.101 282.438 287.36 283.713 287.878 284.758C288.406 285.795 289.136 286.586 290.069 287.13C291.002 287.666 292.087 287.934 293.322 287.934C294.126 287.934 294.852 287.821 295.5 287.597C296.156 287.363 296.722 287.018 297.198 286.56C297.673 286.093 298.04 285.514 298.299 284.823L301.255 285.653C300.943 286.655 300.421 287.536 299.686 288.297C298.952 289.048 298.044 289.636 296.964 290.059C295.884 290.474 294.67 290.682 293.322 290.682ZM338.259 272.017H335.045C334.855 271.093 334.522 270.28 334.047 269.581C333.58 268.881 333.01 268.293 332.336 267.818C331.67 267.334 330.932 266.971 330.119 266.729C329.307 266.487 328.46 266.366 327.579 266.366C325.972 266.366 324.516 266.772 323.211 267.584C321.915 268.397 320.882 269.594 320.113 271.175C319.353 272.756 318.973 274.696 318.973 276.994C318.973 279.293 319.353 281.233 320.113 282.814C320.882 284.395 321.915 285.592 323.211 286.404C324.516 287.217 325.972 287.623 327.579 287.623C328.46 287.623 329.307 287.502 330.119 287.26C330.932 287.018 331.67 286.659 332.336 286.184C333.01 285.7 333.58 285.108 334.047 284.408C334.522 283.7 334.855 282.888 335.045 281.972H338.259C338.017 283.328 337.576 284.542 336.937 285.614C336.298 286.685 335.503 287.597 334.552 288.349C333.602 289.092 332.535 289.658 331.351 290.046C330.176 290.435 328.918 290.63 327.579 290.63C325.315 290.63 323.302 290.077 321.539 288.971C319.776 287.865 318.389 286.292 317.378 284.253C316.367 282.214 315.862 279.794 315.862 276.994C315.862 274.195 316.367 271.775 317.378 269.736C318.389 267.697 319.776 266.124 321.539 265.018C323.302 263.912 325.315 263.359 327.579 263.359C328.918 263.359 330.176 263.554 331.351 263.942C332.535 264.331 333.602 264.902 334.552 265.653C335.503 266.396 336.298 267.304 336.937 268.375C337.576 269.438 338.017 270.652 338.259 272.017ZM351.126 290.682C349.329 290.682 347.752 290.254 346.396 289.398C345.048 288.543 343.993 287.346 343.233 285.808C342.481 284.27 342.105 282.473 342.105 280.416C342.105 278.342 342.481 276.532 343.233 274.985C343.993 273.439 345.048 272.238 346.396 271.382C347.752 270.527 349.329 270.099 351.126 270.099C352.924 270.099 354.496 270.527 355.844 271.382C357.201 272.238 358.255 273.439 359.007 274.985C359.767 276.532 360.148 278.342 360.148 280.416C360.148 282.473 359.767 284.27 359.007 285.808C358.255 287.346 357.201 288.543 355.844 289.398C354.496 290.254 352.924 290.682 351.126 290.682ZM351.126 287.934C352.492 287.934 353.615 287.584 354.496 286.884C355.378 286.184 356.03 285.264 356.454 284.123C356.877 282.983 357.089 281.747 357.089 280.416C357.089 279.086 356.877 277.846 356.454 276.696C356.03 275.547 355.378 274.618 354.496 273.91C353.615 273.201 352.492 272.847 351.126 272.847C349.761 272.847 348.638 273.201 347.757 273.91C346.875 274.618 346.223 275.547 345.799 276.696C345.376 277.846 345.164 279.086 345.164 280.416C345.164 281.747 345.376 282.983 345.799 284.123C346.223 285.264 346.875 286.184 347.757 286.884C348.638 287.584 349.761 287.934 351.126 287.934ZM364.817 290.267V270.358H367.772V273.469H368.031C368.446 272.406 369.116 271.581 370.04 270.993C370.965 270.397 372.075 270.099 373.371 270.099C374.685 270.099 375.778 270.397 376.651 270.993C377.532 271.581 378.219 272.406 378.711 273.469H378.919C379.429 272.441 380.193 271.624 381.213 271.019C382.233 270.406 383.455 270.099 384.881 270.099C386.661 270.099 388.117 270.656 389.249 271.771C390.381 272.877 390.947 274.601 390.947 276.943V290.267H387.888V276.943C387.888 275.474 387.486 274.424 386.683 273.793C385.879 273.162 384.933 272.847 383.844 272.847C382.444 272.847 381.36 273.27 380.591 274.117C379.822 274.955 379.437 276.018 379.437 277.305V290.267H376.327V276.632C376.327 275.5 375.959 274.588 375.225 273.897C374.49 273.197 373.544 272.847 372.386 272.847C371.591 272.847 370.848 273.058 370.157 273.482C369.474 273.905 368.921 274.493 368.498 275.245C368.083 275.988 367.876 276.848 367.876 277.824V290.267H364.817ZM396.54 297.733V270.358H399.495V273.521H399.858C400.082 273.175 400.394 272.734 400.791 272.199C401.197 271.654 401.776 271.17 402.528 270.747C403.288 270.315 404.317 270.099 405.613 270.099C407.289 270.099 408.767 270.518 410.045 271.356C411.324 272.194 412.322 273.383 413.039 274.921C413.757 276.459 414.115 278.273 414.115 280.364C414.115 282.473 413.757 284.3 413.039 285.847C412.322 287.385 411.329 288.578 410.058 289.424C408.788 290.262 407.324 290.682 405.665 290.682C404.386 290.682 403.362 290.47 402.593 290.046C401.824 289.614 401.232 289.126 400.817 288.582C400.402 288.029 400.082 287.571 399.858 287.208H399.599V297.733H396.54ZM399.547 280.313C399.547 281.816 399.767 283.142 400.208 284.292C400.648 285.432 401.292 286.327 402.139 286.975C402.986 287.614 404.023 287.934 405.25 287.934C406.529 287.934 407.596 287.597 408.451 286.923C409.315 286.24 409.963 285.324 410.395 284.175C410.836 283.017 411.056 281.73 411.056 280.313C411.056 278.913 410.84 277.651 410.408 276.528C409.985 275.396 409.341 274.502 408.477 273.845C407.622 273.179 406.546 272.847 405.25 272.847C404.005 272.847 402.96 273.162 402.113 273.793C401.266 274.415 400.627 275.288 400.195 276.411C399.763 277.526 399.547 278.826 399.547 280.313ZM431.328 282.127V270.358H434.387V290.267H431.328V286.897H431.121C430.654 287.908 429.928 288.768 428.943 289.476C427.958 290.176 426.714 290.526 425.21 290.526C423.966 290.526 422.86 290.254 421.892 289.709C420.924 289.156 420.164 288.327 419.611 287.221C419.058 286.106 418.781 284.702 418.781 283.008V270.358H421.84V282.801C421.84 284.253 422.246 285.411 423.059 286.275C423.879 287.139 424.925 287.571 426.195 287.571C426.956 287.571 427.729 287.376 428.515 286.988C429.31 286.599 429.976 286.003 430.511 285.199C431.056 284.395 431.328 283.371 431.328 282.127ZM448.647 270.358V272.95H438.33V270.358H448.647ZM441.337 265.588H444.396V284.564C444.396 285.428 444.521 286.076 444.772 286.508C445.031 286.931 445.36 287.217 445.757 287.363C446.163 287.502 446.591 287.571 447.04 287.571C447.377 287.571 447.654 287.554 447.87 287.519C448.086 287.476 448.259 287.441 448.388 287.415L449.01 290.163C448.803 290.241 448.514 290.319 448.142 290.396C447.77 290.483 447.3 290.526 446.729 290.526C445.865 290.526 445.018 290.34 444.189 289.969C443.368 289.597 442.685 289.031 442.141 288.271C441.605 287.51 441.337 286.551 441.337 285.393V265.588ZM459.107 290.733C457.846 290.733 456.701 290.496 455.673 290.021C454.644 289.537 453.828 288.841 453.223 287.934C452.618 287.018 452.316 285.912 452.316 284.616C452.316 283.475 452.54 282.551 452.99 281.842C453.439 281.125 454.039 280.563 454.791 280.157C455.543 279.751 456.372 279.448 457.28 279.25C458.196 279.042 459.116 278.878 460.04 278.757C461.25 278.602 462.231 278.485 462.983 278.407C463.743 278.321 464.296 278.178 464.642 277.979C464.996 277.781 465.173 277.435 465.173 276.943V276.839C465.173 275.56 464.823 274.566 464.123 273.858C463.432 273.149 462.382 272.795 460.974 272.795C459.513 272.795 458.368 273.115 457.539 273.754C456.709 274.394 456.126 275.076 455.789 275.802L452.886 274.765C453.404 273.555 454.096 272.613 454.96 271.94C455.832 271.257 456.783 270.782 457.811 270.514C458.848 270.237 459.868 270.099 460.87 270.099C461.509 270.099 462.244 270.177 463.073 270.332C463.912 270.479 464.72 270.786 465.497 271.253C466.284 271.719 466.936 272.423 467.454 273.365C467.973 274.307 468.232 275.569 468.232 277.15V290.267H465.173V287.571H465.018C464.81 288.003 464.465 288.465 463.981 288.958C463.497 289.45 462.853 289.869 462.049 290.215C461.246 290.561 460.265 290.733 459.107 290.733ZM459.574 287.986C460.784 287.986 461.803 287.748 462.633 287.273C463.471 286.798 464.102 286.184 464.525 285.432C464.957 284.68 465.173 283.89 465.173 283.06V280.261C465.044 280.416 464.758 280.559 464.318 280.688C463.886 280.809 463.384 280.917 462.814 281.012C462.253 281.099 461.704 281.177 461.168 281.246C460.641 281.306 460.213 281.358 459.885 281.401C459.09 281.505 458.347 281.673 457.656 281.907C456.973 282.131 456.42 282.473 455.997 282.931C455.582 283.38 455.374 283.994 455.374 284.771C455.374 285.834 455.768 286.638 456.554 287.182C457.349 287.718 458.356 287.986 459.574 287.986ZM481.903 290.682C480.037 290.682 478.429 290.241 477.081 289.36C475.733 288.478 474.697 287.264 473.971 285.717C473.245 284.171 472.882 282.404 472.882 280.416C472.882 278.394 473.253 276.61 473.997 275.063C474.748 273.508 475.794 272.294 477.133 271.421C478.481 270.54 480.054 270.099 481.851 270.099C483.251 270.099 484.513 270.358 485.636 270.877C486.759 271.395 487.679 272.121 488.397 273.054C489.114 273.987 489.559 275.076 489.732 276.32H486.673C486.439 275.413 485.921 274.61 485.117 273.91C484.322 273.201 483.251 272.847 481.903 272.847C480.711 272.847 479.665 273.158 478.766 273.78C477.876 274.394 477.181 275.262 476.68 276.385C476.187 277.5 475.941 278.809 475.941 280.313C475.941 281.851 476.183 283.19 476.667 284.331C477.159 285.471 477.85 286.357 478.74 286.988C479.639 287.618 480.693 287.934 481.903 287.934C482.698 287.934 483.419 287.796 484.068 287.519C484.716 287.243 485.264 286.845 485.714 286.327C486.163 285.808 486.483 285.186 486.673 284.46H489.732C489.559 285.635 489.131 286.694 488.448 287.636C487.774 288.569 486.88 289.312 485.765 289.865C484.659 290.409 483.372 290.682 481.903 290.682ZM480.451 290.163H482.992L482.784 291.2C483.458 291.304 484.076 291.585 484.638 292.043C485.2 292.509 485.48 293.248 485.48 294.259C485.48 295.374 485.018 296.281 484.093 296.981C483.178 297.689 481.825 298.044 480.037 298.044L479.933 296.022C480.736 296.022 481.402 295.892 481.929 295.633C482.465 295.382 482.733 294.959 482.733 294.363C482.733 293.766 482.512 293.36 482.072 293.144C481.631 292.928 480.918 292.781 479.933 292.704L480.451 290.163ZM500.062 290.733C498.8 290.733 497.655 290.496 496.627 290.021C495.599 289.537 494.782 288.841 494.177 287.934C493.573 287.018 493.27 285.912 493.27 284.616C493.27 283.475 493.495 282.551 493.944 281.842C494.393 281.125 494.994 280.563 495.746 280.157C496.497 279.751 497.327 279.448 498.234 279.25C499.15 279.042 500.07 278.878 500.995 278.757C502.205 278.602 503.185 278.485 503.937 278.407C504.698 278.321 505.251 278.178 505.596 277.979C505.951 277.781 506.128 277.435 506.128 276.943V276.839C506.128 275.56 505.778 274.566 505.078 273.858C504.387 273.149 503.337 272.795 501.928 272.795C500.468 272.795 499.323 273.115 498.494 273.754C497.664 274.394 497.081 275.076 496.744 275.802L493.84 274.765C494.359 273.555 495.05 272.613 495.914 271.94C496.787 271.257 497.737 270.782 498.766 270.514C499.803 270.237 500.822 270.099 501.825 270.099C502.464 270.099 503.198 270.177 504.028 270.332C504.866 270.479 505.674 270.786 506.452 271.253C507.238 271.719 507.89 272.423 508.409 273.365C508.927 274.307 509.187 275.569 509.187 277.15V290.267H506.128V287.571H505.972C505.765 288.003 505.419 288.465 504.935 288.958C504.451 289.45 503.808 289.869 503.004 290.215C502.2 290.561 501.22 290.733 500.062 290.733ZM500.528 287.986C501.738 287.986 502.758 287.748 503.587 287.273C504.425 286.798 505.056 286.184 505.48 285.432C505.912 284.68 506.128 283.89 506.128 283.06V280.261C505.998 280.416 505.713 280.559 505.272 280.688C504.84 280.809 504.339 280.917 503.769 281.012C503.207 281.099 502.658 281.177 502.123 281.246C501.596 281.306 501.168 281.358 500.84 281.401C500.045 281.505 499.301 281.673 498.61 281.907C497.928 282.131 497.375 282.473 496.951 282.931C496.536 283.38 496.329 283.994 496.329 284.771C496.329 285.834 496.722 286.638 497.508 287.182C498.303 287.718 499.31 287.986 500.528 287.986ZM498.04 267.973L495.655 267.87C495.655 266.548 496.031 265.467 496.783 264.629C497.543 263.783 498.481 263.359 499.595 263.359C500.088 263.359 500.524 263.446 500.904 263.618C501.285 263.783 501.647 263.973 501.993 264.189C502.339 264.405 502.693 264.599 503.056 264.772C503.427 264.936 503.847 265.018 504.313 265.018C504.806 265.018 505.22 264.828 505.557 264.448C505.903 264.059 506.076 263.592 506.076 263.048L508.409 263.255C508.409 264.603 508.029 265.675 507.268 266.47C506.517 267.265 505.583 267.662 504.469 267.662C503.872 267.662 503.38 267.58 502.991 267.416C502.602 267.243 502.257 267.049 501.954 266.833C501.652 266.617 501.332 266.427 500.995 266.262C500.658 266.09 500.243 266.003 499.751 266.003C499.258 266.003 498.848 266.198 498.519 266.586C498.2 266.967 498.04 267.429 498.04 267.973ZM522.858 290.682C521.06 290.682 519.483 290.254 518.127 289.398C516.779 288.543 515.724 287.346 514.964 285.808C514.212 284.27 513.836 282.473 513.836 280.416C513.836 278.342 514.212 276.532 514.964 274.985C515.724 273.439 516.779 272.238 518.127 271.382C519.483 270.527 521.06 270.099 522.858 270.099C524.655 270.099 526.227 270.527 527.575 271.382C528.932 272.238 529.986 273.439 530.738 274.985C531.498 276.532 531.879 278.342 531.879 280.416C531.879 282.473 531.498 284.27 530.738 285.808C529.986 287.346 528.932 288.543 527.575 289.398C526.227 290.254 524.655 290.682 522.858 290.682ZM522.858 287.934C524.223 287.934 525.346 287.584 526.227 286.884C527.109 286.184 527.761 285.264 528.185 284.123C528.608 282.983 528.82 281.747 528.82 280.416C528.82 279.086 528.608 277.846 528.185 276.696C527.761 275.547 527.109 274.618 526.227 273.91C525.346 273.201 524.223 272.847 522.858 272.847C521.492 272.847 520.369 273.201 519.488 273.91C518.606 274.618 517.954 275.547 517.53 276.696C517.107 277.846 516.895 279.086 516.895 280.416C516.895 281.747 517.107 282.983 517.53 284.123C517.954 285.264 518.606 286.184 519.488 286.884C520.369 287.584 521.492 287.934 522.858 287.934ZM545.932 262.478L537.377 294.259H534.578L543.132 262.478H545.932ZM567.393 263.722H570.607V281.298C570.607 283.112 570.179 284.732 569.324 286.158C568.477 287.575 567.28 288.694 565.734 289.515C564.187 290.327 562.372 290.733 560.29 290.733C558.207 290.733 556.393 290.327 554.846 289.515C553.299 288.694 552.098 287.575 551.243 286.158C550.396 284.732 549.973 283.112 549.973 281.298V263.722H553.187V281.038C553.187 282.334 553.472 283.488 554.043 284.499C554.613 285.501 555.425 286.292 556.479 286.871C557.542 287.441 558.812 287.726 560.29 287.726C561.767 287.726 563.038 287.441 564.1 286.871C565.163 286.292 565.976 285.501 566.537 284.499C567.108 283.488 567.393 282.334 567.393 281.038V263.722ZM577.026 290.267V263.722H592.943V266.574H580.241V275.543H591.75V278.394H580.241V290.267H577.026ZM612.965 270.358C612.809 269.045 612.178 268.025 611.072 267.299C609.966 266.574 608.61 266.211 607.002 266.211C605.827 266.211 604.799 266.401 603.918 266.781C603.045 267.161 602.362 267.684 601.87 268.349C601.386 269.015 601.144 269.771 601.144 270.617C601.144 271.326 601.312 271.935 601.649 272.445C601.995 272.946 602.436 273.365 602.971 273.702C603.507 274.031 604.069 274.303 604.656 274.519C605.244 274.726 605.784 274.895 606.277 275.024L608.973 275.75C609.664 275.932 610.433 276.182 611.28 276.502C612.135 276.822 612.952 277.258 613.729 277.811C614.516 278.355 615.164 279.055 615.674 279.911C616.183 280.766 616.438 281.816 616.438 283.06C616.438 284.495 616.062 285.791 615.311 286.949C614.568 288.107 613.479 289.027 612.044 289.709C610.619 290.392 608.886 290.733 606.847 290.733C604.946 290.733 603.3 290.427 601.909 289.813C600.526 289.2 599.437 288.344 598.642 287.247C597.856 286.149 597.411 284.875 597.307 283.423H600.625C600.712 284.426 601.049 285.255 601.636 285.912C602.233 286.56 602.984 287.044 603.892 287.363C604.808 287.675 605.793 287.83 606.847 287.83C608.074 287.83 609.176 287.631 610.152 287.234C611.128 286.828 611.902 286.266 612.472 285.549C613.042 284.823 613.328 283.976 613.328 283.008C613.328 282.127 613.081 281.41 612.589 280.857C612.096 280.304 611.448 279.855 610.645 279.509C609.841 279.163 608.973 278.861 608.039 278.602L604.773 277.668C602.699 277.072 601.058 276.221 599.848 275.115C598.638 274.009 598.033 272.562 598.033 270.773C598.033 269.287 598.435 267.991 599.239 266.885C600.051 265.77 601.14 264.906 602.505 264.292C603.879 263.67 605.413 263.359 607.106 263.359C608.817 263.359 610.338 263.666 611.669 264.279C612.999 264.884 614.053 265.714 614.831 266.768C615.617 267.822 616.032 269.019 616.075 270.358H612.965Z" fill="white"/>
<path fill-rule="evenodd" clip-rule="evenodd" d="M555.917 111.203C558.698 111.203 561.458 110.921 564.192 110.36C566.932 109.792 569.386 108.792 571.558 107.36C573.73 105.927 575.49 103.975 576.834 101.495C578.181 99.0215 578.853 95.8696 578.853 92.047C578.853 86.5738 576.854 82.0793 572.859 78.558C568.864 75.0421 563.13 73.2822 555.657 73.2822H533.636V111.203H555.917ZM526.595 161.119V66.2463H555.657C560.438 66.2463 564.692 66.897 568.427 68.1996C572.167 69.5009 575.334 71.3089 577.943 73.6102C580.547 75.9128 582.525 78.646 583.869 81.818C585.219 84.9899 585.891 88.4018 585.891 92.047C585.891 96.7403 585.067 100.735 583.416 104.036C581.765 107.339 579.547 110.052 576.771 112.183C573.99 114.312 570.796 115.854 567.192 116.808C563.583 117.765 559.87 118.245 556.047 118.245H533.636V161.119H526.595Z" fill="white"/>
<path fill-rule="evenodd" clip-rule="evenodd" d="M448.546 107.429L495.326 63.1184V161.121H488.29V79.1487L448.546 118.372L409.448 79.67V161.121H402.411V63.1184L448.546 107.429Z" fill="white"/>
<path fill-rule="evenodd" clip-rule="evenodd" d="M373.735 113.549C373.735 107.727 372.609 102.211 370.348 96.9976C368.088 91.7844 364.984 87.2218 361.031 83.3152C357.078 79.4047 352.427 76.3207 347.089 74.0608C341.745 71.8062 335.944 70.6755 329.688 70.6755C324.215 70.6755 318.871 71.6969 313.663 73.7382C308.45 75.7794 303.798 78.6914 299.715 82.4673C295.631 86.2485 292.355 90.7844 289.877 96.0856C287.403 101.383 286.164 107.295 286.164 113.809C286.164 119.284 287.251 124.56 289.423 129.642C291.595 134.726 294.631 139.262 298.543 143.262C302.455 147.256 307.1 150.45 312.486 152.84C317.876 155.225 323.824 156.423 330.34 156.423C335.813 156.423 341.157 155.403 346.37 153.361C351.583 151.319 356.208 148.408 360.25 144.627C364.287 140.851 367.547 136.33 370.02 131.075C372.5 125.82 373.735 119.976 373.735 113.549ZM279.128 113.94C279.128 106.555 280.538 99.7788 283.361 93.607C286.184 87.4405 289.945 82.1433 294.631 77.7114C299.325 73.2795 304.71 69.8262 310.794 67.353C316.876 64.873 323.173 63.6397 329.688 63.6397C337.073 63.6397 343.891 65.0037 350.146 67.7436C356.406 70.4769 361.812 74.1288 366.375 78.6913C370.932 83.2486 374.473 88.5031 376.995 94.4563C379.515 100.409 380.77 106.643 380.77 113.158C380.77 120.628 379.358 127.45 376.536 133.617C373.713 139.783 369.979 145.084 365.328 149.518C360.682 153.944 355.339 157.376 349.302 159.808C343.266 162.241 336.985 163.46 330.469 163.46C323.001 163.46 316.136 162.089 309.882 159.356C303.626 156.616 298.221 152.971 293.658 148.408C289.095 143.846 285.533 138.59 282.97 132.638C280.408 126.69 279.128 120.456 279.128 113.94Z" fill="white"/>
<path fill-rule="evenodd" clip-rule="evenodd" d="M60.6598 0.685294C77.2688 0.685294 92.623 4.45587 106.716 11.9917C120.809 19.5342 132.997 29.4766 143.267 41.8243C153.538 54.1733 161.569 68.2143 167.36 83.9486C173.152 99.6828 176.048 115.854 176.048 132.463C176.048 149.072 173.152 163.983 167.36 177.206C161.569 190.43 153.538 201.628 143.267 210.805C132.997 219.987 120.809 227.034 106.716 231.95C92.623 236.867 77.2688 239.324 60.6598 239.324H1V0.690372L60.6598 0.685294Z" fill="white"/>
<path d="M60.6598 0.685294C77.2688 0.685294 92.623 4.45587 106.716 11.9917C120.809 19.5328 132.997 29.4752 143.267 41.8243C153.538 54.1733 161.569 68.2143 167.36 83.9486C173.152 99.6828 176.048 115.854 176.048 132.463C176.048 149.072 173.152 163.983 167.36 177.206C161.569 190.43 153.538 201.628 143.267 210.804C132.997 219.987 120.809 227.033 106.716 231.95C92.623 236.866 77.2688 239.324 60.6598 239.324H1V0.690372L60.6598 0.685294Z" stroke="white" stroke-width="0.215995"/>
<path fill-rule="evenodd" clip-rule="evenodd" d="M281.51 176.518L275.396 181.471L281.369 189.57L288.114 183.857L281.51 176.518Z" fill="white"/>
<path fill-rule="evenodd" clip-rule="evenodd" d="M293.897 177.352L288.099 184.086L294.454 191.627L300.968 184.42L293.897 177.352Z" fill="white"/>
<path fill-rule="evenodd" clip-rule="evenodd" d="M270.497 144.322L265.695 150.176L272.877 157.056L278.096 149.083L270.497 144.322Z" fill="white"/>
<path fill-rule="evenodd" clip-rule="evenodd" d="M284.283 46.8175L277.57 53.2867L281.694 57.9999L289.153 52.9227L284.283 46.8175Z" fill="white"/>
<path fill-rule="evenodd" clip-rule="evenodd" d="M256.684 80.5633L260.71 86.4072L268.736 80.5007C267.189 78.4594 265.621 76.4954 263.996 74.5275L256.684 80.5633Z" fill="white"/>
<path fill-rule="evenodd" clip-rule="evenodd" d="M266.844 13.0717L261.609 22.9461L268.432 26.6913L274.255 17.4622L266.844 13.0717Z" fill="white"/>
<path fill-rule="evenodd" clip-rule="evenodd" d="M288.59 29.3513L282.836 36.6577L288.486 42.5336L295.335 36.3458L288.59 29.3513Z" fill="white"/>
<path fill-rule="evenodd" clip-rule="evenodd" d="M281.924 58.8439L273.789 64.9691L278.945 72.1409L287.044 66.6503L281.924 58.8439Z" fill="white"/>
<path fill-rule="evenodd" clip-rule="evenodd" d="M234.805 23.4447L242.061 23.95L248.596 4.66387L239.987 1.99727L234.805 23.4447Z" fill="white"/>
<path fill-rule="evenodd" clip-rule="evenodd" d="M248.311 18.8849L244.567 28.2966L250.306 30.7499L255.124 22.4168L248.311 18.8849Z" fill="white"/>
<path fill-rule="evenodd" clip-rule="evenodd" d="M265.871 43.7642L260.731 51.5721L266.704 55.7279L272.975 49.4054L265.871 43.7642Z" fill="white"/>
<path fill-rule="evenodd" clip-rule="evenodd" d="M281.657 193.95L274.84 198.589L286.214 214.017L294.323 207.46L281.657 193.95Z" fill="white"/>
<path fill-rule="evenodd" clip-rule="evenodd" d="M273.55 199.294L267.857 202.403L276.769 220.626L284.873 215.069L273.55 199.294Z" fill="white"/>
<path fill-rule="evenodd" clip-rule="evenodd" d="M269.564 174.357L264.512 177.71L269.559 186.393L275.569 181.893L269.564 174.357Z" fill="white"/>
<path fill-rule="evenodd" clip-rule="evenodd" d="M260.604 218.939L253.735 221.605L256.042 231.834L265.063 227.876L260.604 218.939Z" fill="white"/>
<path fill-rule="evenodd" clip-rule="evenodd" d="M286.363 157.135L279.328 164.332L288.598 175.269L297.431 165.701L286.363 157.135Z" fill="white"/>
<path fill-rule="evenodd" clip-rule="evenodd" d="M237.898 208.96L231.289 210.643L232.877 219.485L239.975 217.996L237.898 208.96Z" fill="white"/>
<path fill-rule="evenodd" clip-rule="evenodd" d="M231.045 179.038L225.972 180.175L227.217 191.018L233.686 189.871L231.045 179.038Z" fill="white"/>
<path fill-rule="evenodd" clip-rule="evenodd" d="M245.191 59.6172L242.166 65.7623L245.691 67.925L249.791 62.3251L245.191 59.6172Z" fill="white"/>
<path fill-rule="evenodd" clip-rule="evenodd" d="M193.512 154.255L188.174 160.625L194.715 166.167L199.928 159.088L193.512 154.255Z" fill="white"/>
<path fill-rule="evenodd" clip-rule="evenodd" d="M242.845 177.481L237.881 179.371L240.949 191.341L247.058 188.237L242.845 177.481Z" fill="white"/>
<path fill-rule="evenodd" clip-rule="evenodd" d="M245.365 225.1L237.803 227.167L240.089 237.017L248.522 234.506L245.365 225.1Z" fill="white"/>
<path fill-rule="evenodd" clip-rule="evenodd" d="M231.605 225.042L223.793 225.793L223.178 239.241L233.386 238.87L231.605 225.042Z" fill="white"/>
<path fill-rule="evenodd" clip-rule="evenodd" d="M227.432 197.742L220.578 198.575L220.63 207.887L227.932 207.08L227.432 197.742Z" fill="white"/>
<path fill-rule="evenodd" clip-rule="evenodd" d="M149.74 61.1105L155.859 56.1573L149.88 48.0535L143.141 53.772L149.74 61.1105Z" fill="#00388C"/>
<path fill-rule="evenodd" clip-rule="evenodd" d="M126.257 86.2565L130.742 77.9034L114.888 66.805C112.571 70.7262 111.085 74.7261 109.117 78.8047L126.257 86.2565Z" fill="#00388C"/>
<path fill-rule="evenodd" clip-rule="evenodd" d="M131.081 55.1373L137.325 48.0694L130.658 39.903L123.538 48.2774L131.081 55.1373Z" fill="#00388C"/>
<path fill-rule="evenodd" clip-rule="evenodd" d="M147.554 87.7231L152.356 81.8699L145.174 74.9888L139.955 82.9686L147.554 87.7231Z" fill="#00388C"/>
<path fill-rule="evenodd" clip-rule="evenodd" d="M168.233 91.0164L172.498 85.7139L160.957 77.1527C159.66 79.2354 158.597 81.1566 157.535 83.3392L168.233 91.0164Z" fill="#00388C"/>
<path fill-rule="evenodd" clip-rule="evenodd" d="M119.226 102.629L122.466 93.911L106.637 87.5258C105.847 91.1977 104.617 94.8016 103.94 98.4935L119.226 102.629Z" fill="#00388C"/>
<path fill-rule="evenodd" clip-rule="evenodd" d="M112.528 118.536L113.424 109.656L104.107 107.755C103.825 110.891 102.607 114.021 102.497 117.166L112.528 118.536Z" fill="#00388C"/>
<path fill-rule="evenodd" clip-rule="evenodd" d="M135.994 100.296L139.759 92.8697L131.338 88.7071L127.578 96.7029L135.994 100.296Z" fill="#00388C"/>
<path fill-rule="evenodd" clip-rule="evenodd" d="M119.101 153.095L117.606 146.418L107.571 148.428C108.101 150.835 108.669 153.095 109.366 155.433L119.101 153.095Z" fill="#00388C"/>
<path fill-rule="evenodd" clip-rule="evenodd" d="M128.975 144.362L127.861 136.205L116.002 137.101L117.492 146.523L128.975 144.362Z" fill="#00388C"/>
<path fill-rule="evenodd" clip-rule="evenodd" d="M115.97 137.149L115.054 127.319L103.013 126.409C103.341 130.393 103.752 134.242 104.252 138.215L115.97 137.149Z" fill="#00388C"/>
<path fill-rule="evenodd" clip-rule="evenodd" d="M137.421 135.669L136.551 127.971L127.016 127.726L127.661 136.726L137.421 135.669Z" fill="#00388C"/>
<path fill-rule="evenodd" clip-rule="evenodd" d="M139.82 156.481L137.545 148.654L109.296 155.368C110.52 158.753 111.81 162.123 113.217 165.467L139.82 156.481Z" fill="#00388C"/>
<path fill-rule="evenodd" clip-rule="evenodd" d="M173.5 82.0166L176.292 79.3553L169.218 70.5849C167.896 71.8395 166.614 73.1421 165.359 74.5061L173.5 82.0166Z" fill="white"/>
<path fill-rule="evenodd" clip-rule="evenodd" d="M147.567 192.617L154.28 186.143L150.16 181.434L142.702 186.513L147.567 192.617Z" fill="#00388C"/>
<path fill-rule="evenodd" clip-rule="evenodd" d="M177.78 156.321L174.217 151.02L165.957 155.655L169.862 161.129L177.78 156.321Z" fill="#00388C"/>
<path fill-rule="evenodd" clip-rule="evenodd" d="M128.737 175.534L125.799 169.07L116.857 173.466C118.024 175.747 119.216 177.961 120.471 180.185L128.737 175.534Z" fill="#00388C"/>
<path d="M128.737 175.533L125.799 169.07L116.857 173.466C118.024 175.746 119.216 177.96 120.471 180.184L128.737 175.533Z" stroke="white" stroke-width="0.215995"/>
<path fill-rule="evenodd" clip-rule="evenodd" d="M161.82 157.975L159.393 152.787L151.071 155.593L154.003 162.317L161.82 157.975Z" fill="#00388C"/>
<path fill-rule="evenodd" clip-rule="evenodd" d="M165.007 226.361L170.241 216.479L163.412 212.741L157.589 221.965L165.007 226.361Z" fill="white"/>
<path fill-rule="evenodd" clip-rule="evenodd" d="M137.487 188.409L132.124 181.101L124.16 187.018L130.367 194.908L137.487 188.409Z" fill="#00388C"/>
<path fill-rule="evenodd" clip-rule="evenodd" d="M143.26 210.08L149.011 202.773L143.364 196.892L136.511 203.086L143.26 210.08Z" fill="#00388C"/>
<path fill-rule="evenodd" clip-rule="evenodd" d="M130.257 71.8969L135.351 63.9437L128.44 58.5692L122.852 65.8037L130.257 71.8969Z" fill="#00388C"/>
<path fill-rule="evenodd" clip-rule="evenodd" d="M182.633 222.35L186.377 212.944L180.637 210.491L175.82 218.824L182.633 222.35Z" fill="white"/>
<path fill-rule="evenodd" clip-rule="evenodd" d="M165.98 194.887L171.116 187.851L165.147 183.701L160.168 190.018L165.98 194.887Z" fill="white"/>
<path fill-rule="evenodd" clip-rule="evenodd" d="M133.257 89.2297L137.366 82.0219L130.481 77.8034L126.174 86.1831L133.257 89.2297Z" fill="#00388C"/>
<path fill-rule="evenodd" clip-rule="evenodd" d="M150.927 44.8842L157.74 40.2497L146.37 24.822L138.255 31.3792L150.927 44.8842Z" fill="white"/>
<path fill-rule="evenodd" clip-rule="evenodd" d="M158.3 40.1377L163.992 37.0231L155.087 18.7995L146.976 24.362L158.3 40.1377Z" fill="white"/>
<path fill-rule="evenodd" clip-rule="evenodd" d="M162.3 65.0837L167.347 61.7291L162.3 53.0467L156.295 57.5466L162.3 65.0837Z" fill="white"/>
<path fill-rule="evenodd" clip-rule="evenodd" d="M174.993 59.8972L181.389 56.9799L177.097 46.6575L170.149 49.5587L174.993 59.8972Z" fill="white"/>
<path fill-rule="evenodd" clip-rule="evenodd" d="M164.687 37.3777L172.077 34.4458L168.774 25.602L160.827 29.1393L164.687 37.3777Z" fill="white"/>
<path d="M164.687 37.3777L172.077 34.4458L168.774 25.602L160.827 29.1393L164.687 37.3777Z" stroke="white" stroke-width="0.215995"/>
<path fill-rule="evenodd" clip-rule="evenodd" d="M171.686 22.2981L178.562 19.6368L176.249 8.18377L167.229 12.0064L171.686 22.2981Z" fill="white"/>
<path fill-rule="evenodd" clip-rule="evenodd" d="M180.806 74.2168L185.213 71.6969L181.114 63.1344L175.817 66.389L180.806 74.2168Z" fill="white"/>
<path fill-rule="evenodd" clip-rule="evenodd" d="M146.767 71.6035L151.684 66.573L145.21 58.9319L139.038 65.6144L146.767 71.6035Z" fill="#00388C"/>
<path fill-rule="evenodd" clip-rule="evenodd" d="M199.899 54.9639L204.971 53.828L203.722 42.9842L197.258 44.1309L199.899 54.9639Z" fill="white"/>
<path fill-rule="evenodd" clip-rule="evenodd" d="M198.846 80.5233L204.762 77.0434L200.267 63.9197L192.085 67.825L198.846 80.5233Z" fill="white"/>
<path fill-rule="evenodd" clip-rule="evenodd" d="M183.033 180.147L191.142 168.972L186.71 165.909L177.268 175.497L183.033 180.147Z" fill="white"/>
<path fill-rule="evenodd" clip-rule="evenodd" d="M192.459 188.658L196.626 177.534L193.574 175.778L186.621 186.122L192.459 188.658Z" fill="white"/>
<path d="M192.459 188.658L196.626 177.533L193.574 175.779L186.621 186.122L192.459 188.658Z" stroke="white" stroke-width="0.215995"/>
<path fill-rule="evenodd" clip-rule="evenodd" d="M198.832 174.038L202.458 165.019L199.868 163.702L194.073 170.831L198.832 174.038Z" fill="white"/>
<path fill-rule="evenodd" clip-rule="evenodd" d="M178.086 39.6844L185.649 37.6217L183.362 27.7727L174.93 30.2833L178.086 39.6844Z" fill="white"/>
<path fill-rule="evenodd" clip-rule="evenodd" d="M189.006 61.9504L193.974 60.0598L190.902 48.0961L184.798 51.196L189.006 61.9504Z" fill="white"/>
<path fill-rule="evenodd" clip-rule="evenodd" d="M180.086 201.643L183.577 190.903L180.566 189.086L174.17 198.267L180.086 201.643Z" fill="white"/>
<path fill-rule="evenodd" clip-rule="evenodd" d="M204.006 20.4315L211.099 20.2395L210.74 -2.32769e-07L201.635 1.17731L204.006 20.4315Z" fill="white"/>
<path fill-rule="evenodd" clip-rule="evenodd" d="M215.712 73.7635L220.316 72.9515L220.097 62.8318L213.389 63.9104L215.712 73.7635Z" fill="white"/>
<path fill-rule="evenodd" clip-rule="evenodd" d="M223.685 26.8047L231.513 27.6219L233.007 17.6689L224.2 16.9502L223.685 26.8047Z" fill="white"/>
<path fill-rule="evenodd" clip-rule="evenodd" d="M190.139 26.298L199.212 23.5527L196.291 1.58928C191.885 2.72525 185.743 4.50655 181.468 5.99584L190.139 26.298Z" fill="white"/>
<path fill-rule="evenodd" clip-rule="evenodd" d="M220.672 12.9384L229.536 12.2717L230.369 0.309342L220.213 0.287988L220.672 12.9384Z" fill="white"/>
<path fill-rule="evenodd" clip-rule="evenodd" d="M209.765 59.5238L215.073 58.8412L214.963 46.5655L208.25 48.1495L209.765 59.5238Z" fill="white"/>
<path fill-rule="evenodd" clip-rule="evenodd" d="M204.166 37.8711L211.701 37.1204L211.477 27.178L202.15 29.1313L204.166 37.8711Z" fill="white"/>
<path fill-rule="evenodd" clip-rule="evenodd" d="M216.845 49.1774L223.632 49.5988L223.965 35.2351C221.512 35.3804 219.329 35.6204 216.933 36.0111L216.845 49.1774Z" fill="white"/>
<path fill-rule="evenodd" clip-rule="evenodd" d="M187.113 43.1109L195.024 40.5176L192.009 31.6272L183.695 34.6218L187.113 43.1109Z" fill="white"/>
<path fill-rule="evenodd" clip-rule="evenodd" d="M228.272 72.6435L232.116 73.0022L234.089 61.9145C232.272 61.7371 230.449 61.6225 228.594 61.5705L228.272 72.6435Z" fill="white"/>
<path fill-rule="evenodd" clip-rule="evenodd" d="M130.059 116.616L139.382 116.782L139.799 110.539L130.934 108.856L130.059 116.616Z" fill="#00388C"/>
<path fill-rule="evenodd" clip-rule="evenodd" d="M178.7 112.096L180.524 104.732L172.617 101.576L170.248 111.331L178.7 112.096Z" fill="#00388C"/>
<path fill-rule="evenodd" clip-rule="evenodd" d="M164.62 102.176L166.573 96.7909L158.697 92.895L156.021 99.7228L164.62 102.176Z" fill="#00388C"/>
<path fill-rule="evenodd" clip-rule="evenodd" d="M114.669 125.922L123.909 124.817L124.065 116.666L114.841 116.208L114.669 125.922Z" fill="#00388C"/>
<path fill-rule="evenodd" clip-rule="evenodd" d="M140.234 109.763L150.316 111.185L151.734 102.467L142.13 100.623L140.234 109.763Z" fill="#00388C"/>
<path fill-rule="evenodd" clip-rule="evenodd" d="M148.994 167.028L145.062 161.637L127.697 167.548L132.488 176.976L148.994 167.028Z" fill="#00388C"/>
<path fill-rule="evenodd" clip-rule="evenodd" d="M141.487 131.229L150.091 129.879L148.8 122.724L140.81 123.677L141.487 131.229Z" fill="#00388C"/>
<path fill-rule="evenodd" clip-rule="evenodd" d="M229.725 52.004L235.662 53.1973L238.214 37.3124L230.782 36.2498L229.725 52.004Z" fill="white"/>
<path fill-rule="evenodd" clip-rule="evenodd" d="M243.245 42.0843L249.834 44.5415L254.094 34.2031L247.126 31.3445L243.245 42.0843Z" fill="white"/>
<path fill-rule="evenodd" clip-rule="evenodd" d="M250.924 18.4315L258.227 21.5781L263.591 10.7597L254.539 7.02647L250.924 18.4315Z" fill="white"/>
<path fill-rule="evenodd" clip-rule="evenodd" d="M237.498 58.1239L242.143 60.1598L246.582 51.7694L240.81 49.4521L237.498 58.1239Z" fill="white"/>
<path fill-rule="evenodd" clip-rule="evenodd" d="M273.724 28.8446L279.593 32.3285L284.718 24.9487L278.64 20.3608L273.724 28.8446Z" fill="white"/>
<path fill-rule="evenodd" clip-rule="evenodd" d="M264.337 62.4971L268.728 66.3103L277.952 58.4452L273.862 53.1333L264.337 62.4971Z" fill="white"/>
<path fill-rule="evenodd" clip-rule="evenodd" d="M249.431 65.8837L254.624 69.2436L260.024 61.6345L254.311 58.0305L249.431 65.8837Z" fill="white"/>
<path fill-rule="evenodd" clip-rule="evenodd" d="M258.818 38.111L265.625 41.9909L270.968 33.4138L263.229 28.606L258.818 38.111Z" fill="white"/>
<path fill-rule="evenodd" clip-rule="evenodd" d="M251.711 53.444L256.56 55.6106L262.847 44.9802L256.336 41.043L251.711 53.444Z" fill="white"/>
<path fill-rule="evenodd" clip-rule="evenodd" d="M271.51 44.1909L275.797 48.8201L282.91 41.6443L275.744 36.1591L271.51 44.1909Z" fill="white"/>
<path fill-rule="evenodd" clip-rule="evenodd" d="M259.351 72.1635L262.225 74.4715L265.912 69.133L262.403 67.1957L259.351 72.1635Z" fill="white"/>
<path fill-rule="evenodd" clip-rule="evenodd" d="M222.219 213.381L230.046 212.569L231.541 222.522L222.734 223.241L222.219 213.381Z" fill="white"/>
<path fill-rule="evenodd" clip-rule="evenodd" d="M188.686 216.595L197.758 219.34L194.388 238.397C189.977 237.261 186.097 235.479 181.821 233.985L188.686 216.595Z" fill="white"/>
<path fill-rule="evenodd" clip-rule="evenodd" d="M208.619 213.689L217.483 214.356L218.316 224.184L208.614 223.689L208.619 213.689Z" fill="white"/>
<path fill-rule="evenodd" clip-rule="evenodd" d="M203.499 196.767L210.253 198.553L210.035 208.496L200.702 206.543L203.499 196.767Z" fill="white"/>
<path fill-rule="evenodd" clip-rule="evenodd" d="M213.112 180.221L218.841 180.961L217.763 195.174C215.372 194.611 213.263 195.037 210.965 194.252L213.112 180.221Z" fill="white"/>
<path fill-rule="evenodd" clip-rule="evenodd" d="M171.873 202.752L176.373 204.813L172.816 213.173C171.134 212.089 169.608 210.903 167.968 209.767L171.873 202.752Z" fill="white"/>
<path fill-rule="evenodd" clip-rule="evenodd" d="M156.153 200.752L163.065 206.398L157.815 214.329C155.399 212.309 153.066 210.225 150.758 208.075L156.153 200.752Z" fill="white"/>
<path d="M156.153 200.751L163.065 206.398L157.815 214.329C155.399 212.308 153.066 210.226 150.758 208.075L156.153 200.751Z" stroke="white" stroke-width="0.215995"/>
<path fill-rule="evenodd" clip-rule="evenodd" d="M185.659 197.075L193.571 199.674L190.55 208.564L182.238 205.564L185.659 197.075Z" fill="white"/>
<path fill-rule="evenodd" clip-rule="evenodd" d="M182.099 138.469L184.558 143.395L174.22 151.015L170.329 144.952L182.099 138.469Z" fill="#00388C"/>
<path fill-rule="evenodd" clip-rule="evenodd" d="M166.34 167.68L171.162 172.701L159.923 184.018L154.017 178.232L166.34 167.68Z" fill="#00388C"/>
<path fill-rule="evenodd" clip-rule="evenodd" d="M187.726 148.135L190.633 151.39L183.007 160.821L177.784 156.316L187.726 148.135Z" fill="white"/>
<path fill-rule="evenodd" clip-rule="evenodd" d="M163.167 138.015L165.12 143.4L157.24 147.296L154.568 140.463L163.167 138.015Z" fill="#00388C"/>
<path fill-rule="evenodd" clip-rule="evenodd" d="M202.579 226.652L211.803 228.678L210.255 239.173L201.188 238.006L202.579 226.652Z" fill="white"/>
<path fill-rule="evenodd" clip-rule="evenodd" d="M191.539 206.835L199.544 209.034L197.654 216.881L188.681 213.996L191.539 206.835Z" fill="white"/>
<path d="M191.539 206.835L199.544 209.032L197.654 216.881L188.681 213.996L191.539 206.835Z" stroke="white" stroke-width="0.215995"/>
<path fill-rule="evenodd" clip-rule="evenodd" d="M241.791 198.1L248.379 195.643L252.639 205.976L245.671 208.835L241.791 198.1Z" fill="white"/>
<path fill-rule="evenodd" clip-rule="evenodd" d="M242.751 214.069L250.054 210.923L253.97 219.512L245.846 222.626L242.751 214.069Z" fill="white"/>
<path fill-rule="evenodd" clip-rule="evenodd" d="M247.978 174.3L253.171 170.945L258.578 178.554L252.859 182.158L247.978 174.3Z" fill="white"/>
<path fill-rule="evenodd" clip-rule="evenodd" d="M258.271 210.215L265.079 206.335L270.421 214.913L262.683 219.1L258.271 210.215Z" fill="white"/>
<path fill-rule="evenodd" clip-rule="evenodd" d="M250.271 186.742L255.12 184.57L262.697 195.204L255.667 199.143L250.271 186.742Z" fill="white"/>
<path fill-rule="evenodd" clip-rule="evenodd" d="M257.738 168.305L260.465 166.743L263.237 170.253L259.951 172.549L257.738 168.305Z" fill="white"/>
<path fill-rule="evenodd" clip-rule="evenodd" d="M154.474 122.949L163.801 123.105L164.207 116.856L155.337 115.189L154.474 122.949Z" fill="#00388C"/>
<path fill-rule="evenodd" clip-rule="evenodd" d="M203.286 174.945L207.302 175.8L205.207 185.851L198.92 182.805L203.286 174.945Z" fill="white"/>
<path fill-rule="evenodd" clip-rule="evenodd" d="M183.526 97.4829L188.402 89.9524L177.496 81.2126L171.334 90.1297L183.526 97.4829Z" fill="white"/>
<path fill-rule="evenodd" clip-rule="evenodd" d="M178.086 125.496L179.924 130.954L172.117 134.246L170.257 126.47L178.086 125.496Z" fill="#00388C"/>
<path fill-rule="evenodd" clip-rule="evenodd" d="M228.805 165.815L220.148 165.721L218.232 175.934L229.685 176.008L228.805 165.815Z" fill="white"/>
<path fill-rule="evenodd" clip-rule="evenodd" d="M240.405 76.1234L244.102 78.1394L248.602 70.7276L243.263 68.2436L240.405 76.1234Z" fill="white"/>
<path fill-rule="evenodd" clip-rule="evenodd" d="M170.473 121.602L178.245 120.462L178.13 115.514L170.562 115.134L170.473 121.602Z" fill="#00388C"/>
<path fill-rule="evenodd" clip-rule="evenodd" d="M206.272 162.428L203.303 170.189L211.293 173.298L213.917 164.908L206.272 162.428Z" fill="white"/>
<path fill-rule="evenodd" clip-rule="evenodd" d="M241.885 162.388L245.494 169.357L253.239 165.415L248.931 158.784L241.885 162.388Z" fill="white"/>
<path fill-rule="evenodd" clip-rule="evenodd" d="M247.271 78.9767L252.464 82.5953L258.386 74.7261L252.151 70.6062L247.271 78.9767Z" fill="white"/>
<path fill-rule="evenodd" clip-rule="evenodd" d="M256.444 153.148L250.991 157.221L257.928 165.883C260.622 164.039 262.027 162.664 264.548 160.612L256.444 153.148Z" fill="white"/>
<path fill-rule="evenodd" clip-rule="evenodd" d="M237.991 163.841L233.028 165.216L234.544 177.44L242.205 175.117L237.991 163.841Z" fill="white"/>
<path fill-rule="evenodd" clip-rule="evenodd" d="M294.363 51.0307L299.728 58.3318L307.691 52.4213L301.488 44.5255L294.363 51.0307Z" fill="white"/>
<path fill-rule="evenodd" clip-rule="evenodd" d="M300.776 184.294L294.526 191.356L301.198 199.523L307.792 191.147L300.776 184.294Z" fill="white"/>
<path fill-rule="evenodd" clip-rule="evenodd" d="M309.336 175.898L304.242 183.846L311.154 189.22L316.747 181.986L309.336 175.898Z" fill="white"/>
<path fill-rule="evenodd" clip-rule="evenodd" d="M178.7 112.096L180.524 104.732L172.617 101.576L174.477 111.711L178.7 112.096Z" fill="white"/>
<path fill-rule="evenodd" clip-rule="evenodd" d="M175.633 120.869L178.409 120.462L178.294 115.514L175.065 115.353L175.633 120.869Z" fill="white"/>
<path fill-rule="evenodd" clip-rule="evenodd" d="M178.233 125.496L180.077 131.11L176.102 132.599L175.946 125.782L178.233 125.496Z" fill="white"/>
<path fill-rule="evenodd" clip-rule="evenodd" d="M182.246 138.309L184.71 143.235L174.836 150.511L175.762 141.88L182.246 138.309Z" fill="white"/>
<path fill-rule="evenodd" clip-rule="evenodd" d="M177.78 156.321L174.681 151.712L173.305 159.041L177.78 156.321Z" fill="white"/>
<path fill-rule="evenodd" clip-rule="evenodd" d="M154.473 57.2839L155.864 56.1586L149.73 48.0548L148.73 48.9041L154.473 57.2839Z" fill="white"/>
<path fill-rule="evenodd" clip-rule="evenodd" d="M169.246 89.7498L172.497 85.7072L166.123 80.9793L169.246 89.7498Z" fill="white"/>
<path fill-rule="evenodd" clip-rule="evenodd" d="M169.793 171.273L171.162 172.701L167.834 176.054L169.793 171.273Z" fill="white"/>
<path fill-rule="evenodd" clip-rule="evenodd" d="M162.22 187.414L160.168 190.018L160.501 190.299L162.22 187.414Z" fill="#00388C"/>
</svg>
